<mxfile host="Electron" agent="Mozilla/5.0 (X11; Linux x86_64) AppleWebKit/537.36 (KHTML, like Gecko) draw.io/26.2.2 Chrome/134.0.6998.178 Electron/35.1.2 Safari/537.36" version="26.2.2">
  <diagram name="PÃ¡gina-1" id="tbhhrolYnf2YLyF_AGn1">
    <mxGraphModel dx="571" dy="350" grid="1" gridSize="10" guides="1" tooltips="1" connect="1" arrows="1" fold="1" page="1" pageScale="1" pageWidth="827" pageHeight="1169" math="0" shadow="0">
      <root>
        <mxCell id="0" />
        <mxCell id="1" parent="0" />
        <mxCell id="gUQwB867zqCJYkILIy9S-1" value="Day 03 - Check if a string has valid parentheses (using the stack approach)" style="text;html=1;align=left;verticalAlign=middle;whiteSpace=wrap;rounded=0;fontStyle=1" parent="1" vertex="1">
          <mxGeometry x="40" y="40" width="760" height="30" as="geometry" />
        </mxCell>
        <mxCell id="gUQwB867zqCJYkILIy9S-21" style="edgeStyle=orthogonalEdgeStyle;rounded=0;orthogonalLoop=1;jettySize=auto;html=1;exitX=0.5;exitY=1;exitDx=0;exitDy=0;exitPerimeter=0;entryX=0.5;entryY=0;entryDx=0;entryDy=0;" parent="1" source="gUQwB867zqCJYkILIy9S-3" target="UsSwRiLouIbbxh6A6EXb-1" edge="1">
          <mxGeometry relative="1" as="geometry">
            <mxPoint x="222.25" y="166" as="targetPoint" />
          </mxGeometry>
        </mxCell>
        <mxCell id="gUQwB867zqCJYkILIy9S-3" value="Start" style="strokeWidth=2;html=1;shape=mxgraph.flowchart.terminator;whiteSpace=wrap;" parent="1" vertex="1">
          <mxGeometry x="172.25" y="80" width="100" height="60" as="geometry" />
        </mxCell>
        <mxCell id="YjHuNr1i8aIB65mxRMRY-46" value="Stop" style="strokeWidth=2;html=1;shape=mxgraph.flowchart.terminator;whiteSpace=wrap;" parent="1" vertex="1">
          <mxGeometry x="172.2500000000001" y="1890" width="100" height="60" as="geometry" />
        </mxCell>
        <mxCell id="UsSwRiLouIbbxh6A6EXb-3" style="edgeStyle=orthogonalEdgeStyle;rounded=0;orthogonalLoop=1;jettySize=auto;html=1;exitX=0.5;exitY=1;exitDx=0;exitDy=0;entryX=0.5;entryY=0;entryDx=0;entryDy=0;" parent="1" source="UsSwRiLouIbbxh6A6EXb-1" target="UsSwRiLouIbbxh6A6EXb-2" edge="1">
          <mxGeometry relative="1" as="geometry" />
        </mxCell>
        <mxCell id="UsSwRiLouIbbxh6A6EXb-1" value="&lt;div&gt;&lt;span style=&quot;background-color: transparent; color: light-dark(rgb(0, 0, 0), rgb(255, 255, 255));&quot;&gt;&lt;br&gt;&lt;/span&gt;&lt;/div&gt;&lt;div&gt;&lt;span style=&quot;background-color: transparent; color: light-dark(rgb(0, 0, 0), rgb(255, 255, 255));&quot;&gt;s&lt;/span&gt;&lt;/div&gt;&lt;div&gt;stack&lt;/div&gt;&lt;div&gt;isValid&lt;/div&gt;" style="shape=internalStorage;whiteSpace=wrap;html=1;dx=15;dy=15;rounded=1;arcSize=8;strokeWidth=2;" parent="1" vertex="1">
          <mxGeometry x="182.25" y="170" width="80" height="60" as="geometry" />
        </mxCell>
        <mxCell id="UsSwRiLouIbbxh6A6EXb-5" style="edgeStyle=orthogonalEdgeStyle;rounded=0;orthogonalLoop=1;jettySize=auto;html=1;exitX=0.5;exitY=1;exitDx=0;exitDy=0;entryX=0.5;entryY=0;entryDx=0;entryDy=0;" parent="1" source="UsSwRiLouIbbxh6A6EXb-2" target="UsSwRiLouIbbxh6A6EXb-4" edge="1">
          <mxGeometry relative="1" as="geometry" />
        </mxCell>
        <mxCell id="UsSwRiLouIbbxh6A6EXb-2" value="isValid = true" style="rounded=1;whiteSpace=wrap;html=1;absoluteArcSize=1;arcSize=14;strokeWidth=2;" parent="1" vertex="1">
          <mxGeometry x="172.25" y="260" width="100" height="40" as="geometry" />
        </mxCell>
        <mxCell id="UsSwRiLouIbbxh6A6EXb-78" style="edgeStyle=orthogonalEdgeStyle;rounded=0;orthogonalLoop=1;jettySize=auto;html=1;exitX=0.5;exitY=1;exitDx=0;exitDy=0;" parent="1" source="UsSwRiLouIbbxh6A6EXb-4" target="UsSwRiLouIbbxh6A6EXb-6" edge="1">
          <mxGeometry relative="1" as="geometry" />
        </mxCell>
        <mxCell id="UsSwRiLouIbbxh6A6EXb-4" value="&lt;div&gt;&lt;br&gt;&lt;/div&gt;s" style="html=1;strokeWidth=2;shape=manualInput;whiteSpace=wrap;rounded=1;size=26;arcSize=11;" parent="1" vertex="1">
          <mxGeometry x="172.25" y="330" width="100" height="60" as="geometry" />
        </mxCell>
        <mxCell id="UsSwRiLouIbbxh6A6EXb-9" style="edgeStyle=orthogonalEdgeStyle;rounded=0;orthogonalLoop=1;jettySize=auto;html=1;exitX=0.5;exitY=1;exitDx=0;exitDy=0;entryX=0.5;entryY=0;entryDx=0;entryDy=0;" parent="1" source="UsSwRiLouIbbxh6A6EXb-61" target="UsSwRiLouIbbxh6A6EXb-7" edge="1">
          <mxGeometry relative="1" as="geometry">
            <mxPoint x="222.25" y="559.0000000000001" as="sourcePoint" />
          </mxGeometry>
        </mxCell>
        <mxCell id="UsSwRiLouIbbxh6A6EXb-6" value="i 0; s.length; 1" style="shape=hexagon;perimeter=hexagonPerimeter2;whiteSpace=wrap;html=1;fixedSize=1;" parent="1" vertex="1">
          <mxGeometry x="172.25" y="420" width="100" height="40" as="geometry" />
        </mxCell>
        <mxCell id="UsSwRiLouIbbxh6A6EXb-7" value="&lt;div&gt;c = s.charAt(i)&lt;/div&gt;&lt;div&gt;p = &quot;&quot;&lt;/div&gt;" style="rounded=1;whiteSpace=wrap;html=1;absoluteArcSize=1;arcSize=14;strokeWidth=2;" parent="1" vertex="1">
          <mxGeometry x="172.25" y="570" width="100" height="40" as="geometry" />
        </mxCell>
        <mxCell id="UsSwRiLouIbbxh6A6EXb-14" style="edgeStyle=orthogonalEdgeStyle;rounded=0;orthogonalLoop=1;jettySize=auto;html=1;exitX=1;exitY=0.5;exitDx=0;exitDy=0;exitPerimeter=0;entryX=0;entryY=0.5;entryDx=0;entryDy=0;" parent="1" source="UsSwRiLouIbbxh6A6EXb-10" target="UsSwRiLouIbbxh6A6EXb-13" edge="1">
          <mxGeometry relative="1" as="geometry" />
        </mxCell>
        <mxCell id="UsSwRiLouIbbxh6A6EXb-15" value="Yes" style="edgeLabel;html=1;align=center;verticalAlign=middle;resizable=0;points=[];" parent="UsSwRiLouIbbxh6A6EXb-14" vertex="1" connectable="0">
          <mxGeometry x="-0.2698" y="2" relative="1" as="geometry">
            <mxPoint x="-1" y="1" as="offset" />
          </mxGeometry>
        </mxCell>
        <mxCell id="UsSwRiLouIbbxh6A6EXb-10" value="c == &#39;(&#39;&amp;nbsp;&lt;span style=&quot;background-color: transparent; color: light-dark(rgb(0, 0, 0), rgb(255, 255, 255));&quot;&gt;OR&lt;/span&gt;&lt;div&gt;&lt;span style=&quot;background-color: transparent; color: light-dark(rgb(0, 0, 0), rgb(255, 255, 255));&quot;&gt;&amp;nbsp;c == &#39;[&#39; OR&lt;/span&gt;&lt;/div&gt;&lt;div&gt;&lt;span style=&quot;background-color: transparent; color: light-dark(rgb(0, 0, 0), rgb(255, 255, 255));&quot;&gt;c == &#39;{&#39;&lt;/span&gt;&lt;/div&gt;" style="strokeWidth=2;html=1;shape=mxgraph.flowchart.decision;whiteSpace=wrap;" parent="1" vertex="1">
          <mxGeometry x="172.25" y="640" width="100" height="100" as="geometry" />
        </mxCell>
        <mxCell id="UsSwRiLouIbbxh6A6EXb-12" style="edgeStyle=orthogonalEdgeStyle;rounded=0;orthogonalLoop=1;jettySize=auto;html=1;exitX=0.5;exitY=1;exitDx=0;exitDy=0;entryX=0.503;entryY=-0.021;entryDx=0;entryDy=0;entryPerimeter=0;" parent="1" source="UsSwRiLouIbbxh6A6EXb-7" target="UsSwRiLouIbbxh6A6EXb-10" edge="1">
          <mxGeometry relative="1" as="geometry" />
        </mxCell>
        <mxCell id="UsSwRiLouIbbxh6A6EXb-13" value="stack.push(c)" style="rounded=1;whiteSpace=wrap;html=1;absoluteArcSize=1;arcSize=14;strokeWidth=2;" parent="1" vertex="1">
          <mxGeometry x="302" y="670" width="100" height="40" as="geometry" />
        </mxCell>
        <mxCell id="UsSwRiLouIbbxh6A6EXb-19" style="edgeStyle=orthogonalEdgeStyle;rounded=0;orthogonalLoop=1;jettySize=auto;html=1;exitX=1;exitY=0.5;exitDx=0;exitDy=0;exitPerimeter=0;entryX=0;entryY=0.5;entryDx=0;entryDy=0;" parent="1" source="UsSwRiLouIbbxh6A6EXb-16" target="UsSwRiLouIbbxh6A6EXb-18" edge="1">
          <mxGeometry relative="1" as="geometry" />
        </mxCell>
        <mxCell id="4P66yQyg6vpXfJpMapNs-1" value="Yes" style="edgeLabel;html=1;align=center;verticalAlign=middle;resizable=0;points=[];" vertex="1" connectable="0" parent="UsSwRiLouIbbxh6A6EXb-19">
          <mxGeometry x="-0.4118" y="3" relative="1" as="geometry">
            <mxPoint x="1" y="2" as="offset" />
          </mxGeometry>
        </mxCell>
        <mxCell id="UsSwRiLouIbbxh6A6EXb-57" style="edgeStyle=orthogonalEdgeStyle;rounded=0;orthogonalLoop=1;jettySize=auto;html=1;exitX=0.5;exitY=1;exitDx=0;exitDy=0;exitPerimeter=0;entryX=0.5;entryY=0;entryDx=0;entryDy=0;" parent="1" source="UsSwRiLouIbbxh6A6EXb-16" target="UsSwRiLouIbbxh6A6EXb-22" edge="1">
          <mxGeometry relative="1" as="geometry" />
        </mxCell>
        <mxCell id="UsSwRiLouIbbxh6A6EXb-16" value="stack.length&lt;div&gt;=== 0&lt;/div&gt;" style="strokeWidth=2;html=1;shape=mxgraph.flowchart.decision;whiteSpace=wrap;" parent="1" vertex="1">
          <mxGeometry x="172.25" y="770" width="100" height="100" as="geometry" />
        </mxCell>
        <mxCell id="UsSwRiLouIbbxh6A6EXb-17" style="edgeStyle=orthogonalEdgeStyle;rounded=0;orthogonalLoop=1;jettySize=auto;html=1;exitX=0.5;exitY=1;exitDx=0;exitDy=0;exitPerimeter=0;entryX=0.5;entryY=0;entryDx=0;entryDy=0;entryPerimeter=0;" parent="1" source="UsSwRiLouIbbxh6A6EXb-10" target="UsSwRiLouIbbxh6A6EXb-16" edge="1">
          <mxGeometry relative="1" as="geometry" />
        </mxCell>
        <mxCell id="UsSwRiLouIbbxh6A6EXb-18" value="isValid = false" style="rounded=1;whiteSpace=wrap;html=1;absoluteArcSize=1;arcSize=14;strokeWidth=2;" parent="1" vertex="1">
          <mxGeometry x="302" y="800" width="100" height="40" as="geometry" />
        </mxCell>
        <mxCell id="UsSwRiLouIbbxh6A6EXb-77" style="edgeStyle=orthogonalEdgeStyle;rounded=0;orthogonalLoop=1;jettySize=auto;html=1;exitX=0.5;exitY=1;exitDx=0;exitDy=0;exitPerimeter=0;entryX=0.5;entryY=0;entryDx=0;entryDy=0;" parent="1" source="UsSwRiLouIbbxh6A6EXb-20" target="UsSwRiLouIbbxh6A6EXb-63" edge="1">
          <mxGeometry relative="1" as="geometry" />
        </mxCell>
        <mxCell id="UsSwRiLouIbbxh6A6EXb-20" value="" style="strokeWidth=2;html=1;shape=mxgraph.flowchart.start_2;whiteSpace=wrap;" parent="1" vertex="1">
          <mxGeometry x="202.25" y="1550" width="40" height="40" as="geometry" />
        </mxCell>
        <mxCell id="UsSwRiLouIbbxh6A6EXb-22" value="p = stack.pop()" style="rounded=1;whiteSpace=wrap;html=1;absoluteArcSize=1;arcSize=14;strokeWidth=2;" parent="1" vertex="1">
          <mxGeometry x="172.25" y="890" width="100" height="40" as="geometry" />
        </mxCell>
        <mxCell id="UsSwRiLouIbbxh6A6EXb-23" style="edgeStyle=orthogonalEdgeStyle;rounded=0;orthogonalLoop=1;jettySize=auto;html=1;exitX=1;exitY=0.5;exitDx=0;exitDy=0;exitPerimeter=0;entryX=0;entryY=0.5;entryDx=0;entryDy=0;" parent="1" source="UsSwRiLouIbbxh6A6EXb-24" target="UsSwRiLouIbbxh6A6EXb-25" edge="1">
          <mxGeometry relative="1" as="geometry" />
        </mxCell>
        <mxCell id="UsSwRiLouIbbxh6A6EXb-51" value="" style="edgeStyle=orthogonalEdgeStyle;rounded=0;orthogonalLoop=1;jettySize=auto;html=1;" parent="1" source="UsSwRiLouIbbxh6A6EXb-24" target="UsSwRiLouIbbxh6A6EXb-25" edge="1">
          <mxGeometry relative="1" as="geometry" />
        </mxCell>
        <mxCell id="UsSwRiLouIbbxh6A6EXb-53" value="Yes" style="edgeLabel;html=1;align=center;verticalAlign=middle;resizable=0;points=[];" parent="UsSwRiLouIbbxh6A6EXb-51" vertex="1" connectable="0">
          <mxGeometry x="0.3888" relative="1" as="geometry">
            <mxPoint x="-5" as="offset" />
          </mxGeometry>
        </mxCell>
        <mxCell id="UsSwRiLouIbbxh6A6EXb-24" value="c == &quot;)&quot; AND&lt;div&gt;&amp;nbsp;p != &quot;(&quot;&lt;/div&gt;" style="strokeWidth=2;html=1;shape=mxgraph.flowchart.decision;whiteSpace=wrap;" parent="1" vertex="1">
          <mxGeometry x="172.25" y="960" width="100" height="100" as="geometry" />
        </mxCell>
        <mxCell id="UsSwRiLouIbbxh6A6EXb-25" value="isValid = false" style="rounded=1;whiteSpace=wrap;html=1;absoluteArcSize=1;arcSize=14;strokeWidth=2;" parent="1" vertex="1">
          <mxGeometry x="302" y="990" width="100" height="40" as="geometry" />
        </mxCell>
        <mxCell id="UsSwRiLouIbbxh6A6EXb-29" style="edgeStyle=orthogonalEdgeStyle;rounded=0;orthogonalLoop=1;jettySize=auto;html=1;exitX=1;exitY=0.5;exitDx=0;exitDy=0;exitPerimeter=0;entryX=0;entryY=0.5;entryDx=0;entryDy=0;" parent="1" source="UsSwRiLouIbbxh6A6EXb-30" target="UsSwRiLouIbbxh6A6EXb-31" edge="1">
          <mxGeometry relative="1" as="geometry" />
        </mxCell>
        <mxCell id="UsSwRiLouIbbxh6A6EXb-55" value="Yes" style="edgeLabel;html=1;align=center;verticalAlign=middle;resizable=0;points=[];" parent="UsSwRiLouIbbxh6A6EXb-29" vertex="1" connectable="0">
          <mxGeometry x="-0.1966" y="1" relative="1" as="geometry">
            <mxPoint x="-2" as="offset" />
          </mxGeometry>
        </mxCell>
        <mxCell id="UsSwRiLouIbbxh6A6EXb-30" value="c == &quot;]&quot;&lt;div&gt;AND&lt;div&gt;&amp;nbsp;p != &quot;[&quot;&lt;/div&gt;&lt;/div&gt;" style="strokeWidth=2;html=1;shape=mxgraph.flowchart.decision;whiteSpace=wrap;" parent="1" vertex="1">
          <mxGeometry x="172.25" y="1160" width="100" height="100" as="geometry" />
        </mxCell>
        <mxCell id="UsSwRiLouIbbxh6A6EXb-31" value="isValid = false" style="rounded=1;whiteSpace=wrap;html=1;absoluteArcSize=1;arcSize=14;strokeWidth=2;" parent="1" vertex="1">
          <mxGeometry x="302" y="1190" width="100" height="40" as="geometry" />
        </mxCell>
        <mxCell id="UsSwRiLouIbbxh6A6EXb-32" style="edgeStyle=orthogonalEdgeStyle;rounded=0;orthogonalLoop=1;jettySize=auto;html=1;exitX=1;exitY=0.5;exitDx=0;exitDy=0;exitPerimeter=0;entryX=0;entryY=0.5;entryDx=0;entryDy=0;" parent="1" source="UsSwRiLouIbbxh6A6EXb-33" target="UsSwRiLouIbbxh6A6EXb-34" edge="1">
          <mxGeometry relative="1" as="geometry" />
        </mxCell>
        <mxCell id="UsSwRiLouIbbxh6A6EXb-56" value="Yes" style="edgeLabel;html=1;align=center;verticalAlign=middle;resizable=0;points=[];" parent="UsSwRiLouIbbxh6A6EXb-32" vertex="1" connectable="0">
          <mxGeometry x="-0.0891" relative="1" as="geometry">
            <mxPoint x="-3" y="-1" as="offset" />
          </mxGeometry>
        </mxCell>
        <mxCell id="UsSwRiLouIbbxh6A6EXb-33" value="c == &quot;}&quot;&amp;nbsp;&lt;div&gt;AND&lt;/div&gt;&lt;div&gt;&amp;nbsp;p != &quot;{&quot;&lt;/div&gt;" style="strokeWidth=2;html=1;shape=mxgraph.flowchart.decision;whiteSpace=wrap;" parent="1" vertex="1">
          <mxGeometry x="172.25" y="1350" width="100" height="100" as="geometry" />
        </mxCell>
        <mxCell id="UsSwRiLouIbbxh6A6EXb-34" value="isValid = false" style="rounded=1;whiteSpace=wrap;html=1;absoluteArcSize=1;arcSize=14;strokeWidth=2;" parent="1" vertex="1">
          <mxGeometry x="302" y="1380" width="100" height="40" as="geometry" />
        </mxCell>
        <mxCell id="UsSwRiLouIbbxh6A6EXb-58" style="edgeStyle=orthogonalEdgeStyle;rounded=0;orthogonalLoop=1;jettySize=auto;html=1;exitX=0;exitY=0.5;exitDx=0;exitDy=0;exitPerimeter=0;entryX=0;entryY=0.5;entryDx=0;entryDy=0;" parent="1" source="UsSwRiLouIbbxh6A6EXb-35" target="UsSwRiLouIbbxh6A6EXb-6" edge="1">
          <mxGeometry relative="1" as="geometry" />
        </mxCell>
        <mxCell id="UsSwRiLouIbbxh6A6EXb-35" value="" style="strokeWidth=2;html=1;shape=mxgraph.flowchart.start_2;whiteSpace=wrap;" parent="1" vertex="1">
          <mxGeometry x="202.25" y="1480" width="40" height="40" as="geometry" />
        </mxCell>
        <mxCell id="UsSwRiLouIbbxh6A6EXb-39" style="edgeStyle=orthogonalEdgeStyle;rounded=0;orthogonalLoop=1;jettySize=auto;html=1;exitX=0.5;exitY=1;exitDx=0;exitDy=0;entryX=0.5;entryY=0;entryDx=0;entryDy=0;entryPerimeter=0;" parent="1" source="UsSwRiLouIbbxh6A6EXb-22" target="UsSwRiLouIbbxh6A6EXb-24" edge="1">
          <mxGeometry relative="1" as="geometry" />
        </mxCell>
        <mxCell id="UsSwRiLouIbbxh6A6EXb-40" value="" style="strokeWidth=2;html=1;shape=mxgraph.flowchart.start_2;whiteSpace=wrap;" parent="1" vertex="1">
          <mxGeometry x="202.25" y="1090" width="40" height="40" as="geometry" />
        </mxCell>
        <mxCell id="UsSwRiLouIbbxh6A6EXb-41" value="" style="strokeWidth=2;html=1;shape=mxgraph.flowchart.start_2;whiteSpace=wrap;" parent="1" vertex="1">
          <mxGeometry x="202.25" y="1290" width="40" height="40" as="geometry" />
        </mxCell>
        <mxCell id="UsSwRiLouIbbxh6A6EXb-42" style="edgeStyle=orthogonalEdgeStyle;rounded=0;orthogonalLoop=1;jettySize=auto;html=1;exitX=0.5;exitY=1;exitDx=0;exitDy=0;exitPerimeter=0;entryX=0.5;entryY=0;entryDx=0;entryDy=0;entryPerimeter=0;" parent="1" source="UsSwRiLouIbbxh6A6EXb-24" target="UsSwRiLouIbbxh6A6EXb-40" edge="1">
          <mxGeometry relative="1" as="geometry" />
        </mxCell>
        <mxCell id="UsSwRiLouIbbxh6A6EXb-43" style="edgeStyle=orthogonalEdgeStyle;rounded=0;orthogonalLoop=1;jettySize=auto;html=1;exitX=0.5;exitY=1;exitDx=0;exitDy=0;entryX=1;entryY=0.5;entryDx=0;entryDy=0;entryPerimeter=0;" parent="1" source="UsSwRiLouIbbxh6A6EXb-25" target="UsSwRiLouIbbxh6A6EXb-40" edge="1">
          <mxGeometry relative="1" as="geometry" />
        </mxCell>
        <mxCell id="UsSwRiLouIbbxh6A6EXb-45" style="edgeStyle=orthogonalEdgeStyle;rounded=0;orthogonalLoop=1;jettySize=auto;html=1;exitX=0.5;exitY=1;exitDx=0;exitDy=0;entryX=1;entryY=0.5;entryDx=0;entryDy=0;entryPerimeter=0;" parent="1" source="UsSwRiLouIbbxh6A6EXb-31" target="UsSwRiLouIbbxh6A6EXb-41" edge="1">
          <mxGeometry relative="1" as="geometry" />
        </mxCell>
        <mxCell id="UsSwRiLouIbbxh6A6EXb-46" style="edgeStyle=orthogonalEdgeStyle;rounded=0;orthogonalLoop=1;jettySize=auto;html=1;exitX=0.5;exitY=1;exitDx=0;exitDy=0;exitPerimeter=0;entryX=0.5;entryY=0;entryDx=0;entryDy=0;entryPerimeter=0;" parent="1" source="UsSwRiLouIbbxh6A6EXb-30" target="UsSwRiLouIbbxh6A6EXb-41" edge="1">
          <mxGeometry relative="1" as="geometry" />
        </mxCell>
        <mxCell id="UsSwRiLouIbbxh6A6EXb-47" style="edgeStyle=orthogonalEdgeStyle;rounded=0;orthogonalLoop=1;jettySize=auto;html=1;exitX=0.5;exitY=1;exitDx=0;exitDy=0;exitPerimeter=0;entryX=0.5;entryY=0;entryDx=0;entryDy=0;entryPerimeter=0;" parent="1" source="UsSwRiLouIbbxh6A6EXb-41" target="UsSwRiLouIbbxh6A6EXb-33" edge="1">
          <mxGeometry relative="1" as="geometry" />
        </mxCell>
        <mxCell id="UsSwRiLouIbbxh6A6EXb-48" style="edgeStyle=orthogonalEdgeStyle;rounded=0;orthogonalLoop=1;jettySize=auto;html=1;exitX=0.5;exitY=1;exitDx=0;exitDy=0;entryX=1;entryY=0.5;entryDx=0;entryDy=0;entryPerimeter=0;" parent="1" source="UsSwRiLouIbbxh6A6EXb-34" target="UsSwRiLouIbbxh6A6EXb-35" edge="1">
          <mxGeometry relative="1" as="geometry" />
        </mxCell>
        <mxCell id="UsSwRiLouIbbxh6A6EXb-49" style="edgeStyle=orthogonalEdgeStyle;rounded=0;orthogonalLoop=1;jettySize=auto;html=1;exitX=0.5;exitY=1;exitDx=0;exitDy=0;exitPerimeter=0;entryX=0.5;entryY=0;entryDx=0;entryDy=0;entryPerimeter=0;" parent="1" source="UsSwRiLouIbbxh6A6EXb-33" target="UsSwRiLouIbbxh6A6EXb-35" edge="1">
          <mxGeometry relative="1" as="geometry" />
        </mxCell>
        <mxCell id="UsSwRiLouIbbxh6A6EXb-50" style="edgeStyle=orthogonalEdgeStyle;rounded=0;orthogonalLoop=1;jettySize=auto;html=1;exitX=0.5;exitY=1;exitDx=0;exitDy=0;exitPerimeter=0;entryX=0.5;entryY=0;entryDx=0;entryDy=0;entryPerimeter=0;" parent="1" source="UsSwRiLouIbbxh6A6EXb-40" target="UsSwRiLouIbbxh6A6EXb-30" edge="1">
          <mxGeometry relative="1" as="geometry" />
        </mxCell>
        <mxCell id="UsSwRiLouIbbxh6A6EXb-59" style="edgeStyle=orthogonalEdgeStyle;rounded=0;orthogonalLoop=1;jettySize=auto;html=1;exitX=1;exitY=0.5;exitDx=0;exitDy=0;entryX=1;entryY=0.5;entryDx=0;entryDy=0;entryPerimeter=0;" parent="1" source="UsSwRiLouIbbxh6A6EXb-18" target="UsSwRiLouIbbxh6A6EXb-20" edge="1">
          <mxGeometry relative="1" as="geometry" />
        </mxCell>
        <mxCell id="UsSwRiLouIbbxh6A6EXb-60" style="edgeStyle=orthogonalEdgeStyle;rounded=0;orthogonalLoop=1;jettySize=auto;html=1;exitX=1;exitY=0.5;exitDx=0;exitDy=0;entryX=1;entryY=0.5;entryDx=0;entryDy=0;entryPerimeter=0;" parent="1" source="UsSwRiLouIbbxh6A6EXb-13" target="UsSwRiLouIbbxh6A6EXb-35" edge="1">
          <mxGeometry relative="1" as="geometry">
            <Array as="points">
              <mxPoint x="440" y="690" />
              <mxPoint x="440" y="1500" />
            </Array>
          </mxGeometry>
        </mxCell>
        <mxCell id="UsSwRiLouIbbxh6A6EXb-62" value="" style="edgeStyle=orthogonalEdgeStyle;rounded=0;orthogonalLoop=1;jettySize=auto;html=1;exitX=0.5;exitY=1;exitDx=0;exitDy=0;entryX=0.5;entryY=0;entryDx=0;entryDy=0;" parent="1" source="UsSwRiLouIbbxh6A6EXb-6" target="UsSwRiLouIbbxh6A6EXb-61" edge="1">
          <mxGeometry relative="1" as="geometry">
            <mxPoint x="222" y="460" as="sourcePoint" />
            <mxPoint x="222" y="560" as="targetPoint" />
          </mxGeometry>
        </mxCell>
        <mxCell id="UsSwRiLouIbbxh6A6EXb-61" value="&lt;br&gt;&lt;div&gt;c&lt;/div&gt;&lt;div&gt;&lt;span style=&quot;background-color: transparent; color: light-dark(rgb(0, 0, 0), rgb(255, 255, 255));&quot;&gt;p&lt;/span&gt;&lt;/div&gt;" style="shape=internalStorage;whiteSpace=wrap;html=1;dx=15;dy=15;rounded=1;arcSize=8;strokeWidth=2;" parent="1" vertex="1">
          <mxGeometry x="182.25" y="490" width="80" height="50" as="geometry" />
        </mxCell>
        <mxCell id="UsSwRiLouIbbxh6A6EXb-63" value="isValid = isValid AND&lt;div&gt;stack.length === 0&lt;/div&gt;" style="rounded=1;whiteSpace=wrap;html=1;absoluteArcSize=1;arcSize=14;strokeWidth=2;" parent="1" vertex="1">
          <mxGeometry x="162.25" y="1620" width="120" height="40" as="geometry" />
        </mxCell>
        <mxCell id="UsSwRiLouIbbxh6A6EXb-68" style="edgeStyle=orthogonalEdgeStyle;rounded=0;orthogonalLoop=1;jettySize=auto;html=1;exitX=0;exitY=0.5;exitDx=0;exitDy=0;exitPerimeter=0;" parent="1" source="UsSwRiLouIbbxh6A6EXb-64" target="UsSwRiLouIbbxh6A6EXb-67" edge="1">
          <mxGeometry relative="1" as="geometry" />
        </mxCell>
        <mxCell id="UsSwRiLouIbbxh6A6EXb-70" value="No" style="edgeLabel;html=1;align=center;verticalAlign=middle;resizable=0;points=[];" parent="UsSwRiLouIbbxh6A6EXb-68" vertex="1" connectable="0">
          <mxGeometry x="-0.5106" relative="1" as="geometry">
            <mxPoint as="offset" />
          </mxGeometry>
        </mxCell>
        <mxCell id="UsSwRiLouIbbxh6A6EXb-64" value="isValid" style="strokeWidth=2;html=1;shape=mxgraph.flowchart.decision;whiteSpace=wrap;" parent="1" vertex="1">
          <mxGeometry x="172.25" y="1690" width="100" height="100" as="geometry" />
        </mxCell>
        <mxCell id="UsSwRiLouIbbxh6A6EXb-65" value="&quot;Valid given&amp;nbsp;&lt;div&gt;string&lt;/div&gt;&lt;div&gt;message&quot;&lt;/div&gt;" style="strokeWidth=2;html=1;shape=mxgraph.flowchart.display;whiteSpace=wrap;" parent="1" vertex="1">
          <mxGeometry x="302" y="1710" width="100" height="60" as="geometry" />
        </mxCell>
        <mxCell id="UsSwRiLouIbbxh6A6EXb-67" value="&quot;Invalid given string&lt;div&gt;message&quot;&lt;/div&gt;" style="strokeWidth=2;html=1;shape=mxgraph.flowchart.display;whiteSpace=wrap;align=center;" parent="1" vertex="1">
          <mxGeometry x="40" y="1710" width="100" height="60" as="geometry" />
        </mxCell>
        <mxCell id="UsSwRiLouIbbxh6A6EXb-69" style="edgeStyle=orthogonalEdgeStyle;rounded=0;orthogonalLoop=1;jettySize=auto;html=1;exitX=1;exitY=0.5;exitDx=0;exitDy=0;exitPerimeter=0;entryX=0;entryY=0.5;entryDx=0;entryDy=0;entryPerimeter=0;" parent="1" source="UsSwRiLouIbbxh6A6EXb-64" target="UsSwRiLouIbbxh6A6EXb-65" edge="1">
          <mxGeometry relative="1" as="geometry" />
        </mxCell>
        <mxCell id="UsSwRiLouIbbxh6A6EXb-71" value="Yes" style="edgeLabel;html=1;align=center;verticalAlign=middle;resizable=0;points=[];" parent="UsSwRiLouIbbxh6A6EXb-69" vertex="1" connectable="0">
          <mxGeometry x="-0.2022" y="2" relative="1" as="geometry">
            <mxPoint x="-1" y="1" as="offset" />
          </mxGeometry>
        </mxCell>
        <mxCell id="UsSwRiLouIbbxh6A6EXb-76" style="edgeStyle=orthogonalEdgeStyle;rounded=0;orthogonalLoop=1;jettySize=auto;html=1;exitX=0.5;exitY=1;exitDx=0;exitDy=0;exitPerimeter=0;" parent="1" source="UsSwRiLouIbbxh6A6EXb-72" target="YjHuNr1i8aIB65mxRMRY-46" edge="1">
          <mxGeometry relative="1" as="geometry" />
        </mxCell>
        <mxCell id="UsSwRiLouIbbxh6A6EXb-72" value="" style="strokeWidth=2;html=1;shape=mxgraph.flowchart.start_2;whiteSpace=wrap;" parent="1" vertex="1">
          <mxGeometry x="202.25" y="1820" width="40" height="40" as="geometry" />
        </mxCell>
        <mxCell id="UsSwRiLouIbbxh6A6EXb-73" style="edgeStyle=orthogonalEdgeStyle;rounded=0;orthogonalLoop=1;jettySize=auto;html=1;exitX=0.5;exitY=1;exitDx=0;exitDy=0;exitPerimeter=0;entryX=0;entryY=0.5;entryDx=0;entryDy=0;entryPerimeter=0;" parent="1" source="UsSwRiLouIbbxh6A6EXb-67" target="UsSwRiLouIbbxh6A6EXb-72" edge="1">
          <mxGeometry relative="1" as="geometry" />
        </mxCell>
        <mxCell id="UsSwRiLouIbbxh6A6EXb-74" style="edgeStyle=orthogonalEdgeStyle;rounded=0;orthogonalLoop=1;jettySize=auto;html=1;exitX=0.5;exitY=1;exitDx=0;exitDy=0;exitPerimeter=0;entryX=1;entryY=0.5;entryDx=0;entryDy=0;entryPerimeter=0;" parent="1" source="UsSwRiLouIbbxh6A6EXb-65" target="UsSwRiLouIbbxh6A6EXb-72" edge="1">
          <mxGeometry relative="1" as="geometry" />
        </mxCell>
        <mxCell id="UsSwRiLouIbbxh6A6EXb-75" style="edgeStyle=orthogonalEdgeStyle;rounded=0;orthogonalLoop=1;jettySize=auto;html=1;exitX=0.5;exitY=1;exitDx=0;exitDy=0;entryX=0.5;entryY=0;entryDx=0;entryDy=0;entryPerimeter=0;" parent="1" source="UsSwRiLouIbbxh6A6EXb-63" target="UsSwRiLouIbbxh6A6EXb-64" edge="1">
          <mxGeometry relative="1" as="geometry" />
        </mxCell>
        <mxCell id="UsSwRiLouIbbxh6A6EXb-79" style="edgeStyle=orthogonalEdgeStyle;rounded=0;orthogonalLoop=1;jettySize=auto;html=1;exitX=1;exitY=0.5;exitDx=0;exitDy=0;entryX=1;entryY=0.5;entryDx=0;entryDy=0;entryPerimeter=0;" parent="1" source="UsSwRiLouIbbxh6A6EXb-6" target="UsSwRiLouIbbxh6A6EXb-20" edge="1">
          <mxGeometry relative="1" as="geometry">
            <Array as="points">
              <mxPoint x="450" y="440" />
              <mxPoint x="450" y="1570" />
            </Array>
          </mxGeometry>
        </mxCell>
      </root>
    </mxGraphModel>
  </diagram>
</mxfile>
